<svg xmlns="http://www.w3.org/2000/svg" xmlns:xlink="http://www.w3.org/1999/xlink" width="500" zoomAndPan="magnify" viewBox="0 0 375 374.999991" height="500" preserveAspectRatio="xMidYMid meet" version="1.0"><defs><g/><linearGradient x1="0" gradientTransform="matrix(0.75, 0, 0, 0.75, 0.0000045, 0)" y1="250" x2="499.999979" gradientUnits="userSpaceOnUse" y2="250" id="e30918cb7d"><stop stop-opacity="1" stop-color="rgb(0%, 0%, 0%)" offset="0"/><stop stop-opacity="1" stop-color="rgb(0.0808716%, 0.0778198%, 0.312805%)" offset="0.00390625"/><stop stop-opacity="1" stop-color="rgb(0.161743%, 0.15564%, 0.627136%)" offset="0.0078125"/><stop stop-opacity="1" stop-color="rgb(0.242615%, 0.233459%, 0.941467%)" offset="0.0117187"/><stop stop-opacity="1" stop-color="rgb(0.323486%, 0.311279%, 1.255798%)" offset="0.015625"/><stop stop-opacity="1" stop-color="rgb(0.404358%, 0.389099%, 1.568604%)" offset="0.0195312"/><stop stop-opacity="1" stop-color="rgb(0.486755%, 0.468445%, 1.882935%)" offset="0.0234375"/><stop stop-opacity="1" stop-color="rgb(0.567627%, 0.546265%, 2.197266%)" offset="0.0273438"/><stop stop-opacity="1" stop-color="rgb(0.648499%, 0.624084%, 2.511597%)" offset="0.03125"/><stop stop-opacity="1" stop-color="rgb(0.72937%, 0.701904%, 2.824402%)" offset="0.0351562"/><stop stop-opacity="1" stop-color="rgb(0.810242%, 0.779724%, 3.138733%)" offset="0.0390625"/><stop stop-opacity="1" stop-color="rgb(0.891113%, 0.857544%, 3.453064%)" offset="0.0429687"/><stop stop-opacity="1" stop-color="rgb(0.973511%, 0.93689%, 3.767395%)" offset="0.046875"/><stop stop-opacity="1" stop-color="rgb(1.054382%, 1.014709%, 4.081726%)" offset="0.0507812"/><stop stop-opacity="1" stop-color="rgb(1.135254%, 1.092529%, 4.396057%)" offset="0.0546875"/><stop stop-opacity="1" stop-color="rgb(1.216125%, 1.170349%, 4.708862%)" offset="0.0585938"/><stop stop-opacity="1" stop-color="rgb(1.298523%, 1.249695%, 5.023193%)" offset="0.0625"/><stop stop-opacity="1" stop-color="rgb(1.379395%, 1.327515%, 5.337524%)" offset="0.0664062"/><stop stop-opacity="1" stop-color="rgb(1.460266%, 1.405334%, 5.651855%)" offset="0.0703125"/><stop stop-opacity="1" stop-color="rgb(1.541138%, 1.483154%, 5.964661%)" offset="0.0742187"/><stop stop-opacity="1" stop-color="rgb(1.622009%, 1.560974%, 6.278992%)" offset="0.078125"/><stop stop-opacity="1" stop-color="rgb(1.702881%, 1.638794%, 6.593323%)" offset="0.0820312"/><stop stop-opacity="1" stop-color="rgb(1.785278%, 1.71814%, 6.907654%)" offset="0.0859375"/><stop stop-opacity="1" stop-color="rgb(1.86615%, 1.795959%, 7.221985%)" offset="0.0898437"/><stop stop-opacity="1" stop-color="rgb(1.947021%, 1.873779%, 7.536316%)" offset="0.09375"/><stop stop-opacity="1" stop-color="rgb(2.027893%, 1.951599%, 7.849121%)" offset="0.0976562"/><stop stop-opacity="1" stop-color="rgb(2.110291%, 2.030945%, 8.163452%)" offset="0.101562"/><stop stop-opacity="1" stop-color="rgb(2.191162%, 2.108765%, 8.477783%)" offset="0.105469"/><stop stop-opacity="1" stop-color="rgb(2.272034%, 2.186584%, 8.792114%)" offset="0.109375"/><stop stop-opacity="1" stop-color="rgb(2.352905%, 2.264404%, 9.104919%)" offset="0.113281"/><stop stop-opacity="1" stop-color="rgb(2.433777%, 2.342224%, 9.41925%)" offset="0.117188"/><stop stop-opacity="1" stop-color="rgb(2.514648%, 2.420044%, 9.733582%)" offset="0.121094"/><stop stop-opacity="1" stop-color="rgb(2.597046%, 2.49939%, 10.047913%)" offset="0.125"/><stop stop-opacity="1" stop-color="rgb(2.677917%, 2.577209%, 10.362244%)" offset="0.128906"/><stop stop-opacity="1" stop-color="rgb(2.758789%, 2.655029%, 10.676575%)" offset="0.132812"/><stop stop-opacity="1" stop-color="rgb(2.839661%, 2.732849%, 10.98938%)" offset="0.136719"/><stop stop-opacity="1" stop-color="rgb(2.922058%, 2.812195%, 11.303711%)" offset="0.140625"/><stop stop-opacity="1" stop-color="rgb(3.00293%, 2.890015%, 11.618042%)" offset="0.144531"/><stop stop-opacity="1" stop-color="rgb(3.083801%, 2.967834%, 11.932373%)" offset="0.148437"/><stop stop-opacity="1" stop-color="rgb(3.164673%, 3.045654%, 12.245178%)" offset="0.152344"/><stop stop-opacity="1" stop-color="rgb(3.245544%, 3.123474%, 12.559509%)" offset="0.15625"/><stop stop-opacity="1" stop-color="rgb(3.326416%, 3.201294%, 12.87384%)" offset="0.160156"/><stop stop-opacity="1" stop-color="rgb(3.408813%, 3.28064%, 13.188171%)" offset="0.164062"/><stop stop-opacity="1" stop-color="rgb(3.489685%, 3.358459%, 13.502502%)" offset="0.167969"/><stop stop-opacity="1" stop-color="rgb(3.570557%, 3.436279%, 13.816833%)" offset="0.171875"/><stop stop-opacity="1" stop-color="rgb(3.651428%, 3.514099%, 14.129639%)" offset="0.175781"/><stop stop-opacity="1" stop-color="rgb(3.733826%, 3.593445%, 14.44397%)" offset="0.179687"/><stop stop-opacity="1" stop-color="rgb(3.814697%, 3.671265%, 14.758301%)" offset="0.183594"/><stop stop-opacity="1" stop-color="rgb(3.895569%, 3.749084%, 15.072632%)" offset="0.1875"/><stop stop-opacity="1" stop-color="rgb(3.97644%, 3.826904%, 15.385437%)" offset="0.191406"/><stop stop-opacity="1" stop-color="rgb(4.057312%, 3.904724%, 15.699768%)" offset="0.195312"/><stop stop-opacity="1" stop-color="rgb(4.138184%, 3.982544%, 16.014099%)" offset="0.199219"/><stop stop-opacity="1" stop-color="rgb(4.220581%, 4.06189%, 16.32843%)" offset="0.203125"/><stop stop-opacity="1" stop-color="rgb(4.301453%, 4.139709%, 16.642761%)" offset="0.207031"/><stop stop-opacity="1" stop-color="rgb(4.382324%, 4.217529%, 16.957092%)" offset="0.210938"/><stop stop-opacity="1" stop-color="rgb(4.463196%, 4.295349%, 17.269897%)" offset="0.214844"/><stop stop-opacity="1" stop-color="rgb(4.545593%, 4.374695%, 17.584229%)" offset="0.21875"/><stop stop-opacity="1" stop-color="rgb(4.626465%, 4.452515%, 17.89856%)" offset="0.222656"/><stop stop-opacity="1" stop-color="rgb(4.707336%, 4.530334%, 18.212891%)" offset="0.226562"/><stop stop-opacity="1" stop-color="rgb(4.788208%, 4.608154%, 18.525696%)" offset="0.230469"/><stop stop-opacity="1" stop-color="rgb(4.86908%, 4.685974%, 18.840027%)" offset="0.234375"/><stop stop-opacity="1" stop-color="rgb(4.949951%, 4.763794%, 19.154358%)" offset="0.238281"/><stop stop-opacity="1" stop-color="rgb(5.032349%, 4.84314%, 19.468689%)" offset="0.242188"/><stop stop-opacity="1" stop-color="rgb(5.11322%, 4.920959%, 19.78302%)" offset="0.246094"/><stop stop-opacity="1" stop-color="rgb(5.194092%, 4.998779%, 20.097351%)" offset="0.25"/><stop stop-opacity="1" stop-color="rgb(5.274963%, 5.076599%, 20.410156%)" offset="0.253906"/><stop stop-opacity="1" stop-color="rgb(5.355835%, 5.155945%, 20.724487%)" offset="0.257812"/><stop stop-opacity="1" stop-color="rgb(5.436707%, 5.233765%, 21.038818%)" offset="0.261719"/><stop stop-opacity="1" stop-color="rgb(5.519104%, 5.311584%, 21.353149%)" offset="0.265625"/><stop stop-opacity="1" stop-color="rgb(5.599976%, 5.389404%, 21.665955%)" offset="0.269531"/><stop stop-opacity="1" stop-color="rgb(5.680847%, 5.467224%, 21.980286%)" offset="0.273437"/><stop stop-opacity="1" stop-color="rgb(5.761719%, 5.545044%, 22.294617%)" offset="0.277344"/><stop stop-opacity="1" stop-color="rgb(5.844116%, 5.62439%, 22.608948%)" offset="0.28125"/><stop stop-opacity="1" stop-color="rgb(5.924988%, 5.702209%, 22.923279%)" offset="0.285156"/><stop stop-opacity="1" stop-color="rgb(6.005859%, 5.780029%, 23.23761%)" offset="0.289062"/><stop stop-opacity="1" stop-color="rgb(6.086731%, 5.857849%, 23.550415%)" offset="0.292969"/><stop stop-opacity="1" stop-color="rgb(6.167603%, 5.937195%, 23.864746%)" offset="0.296875"/><stop stop-opacity="1" stop-color="rgb(6.248474%, 6.015015%, 24.179077%)" offset="0.300781"/><stop stop-opacity="1" stop-color="rgb(6.330872%, 6.092834%, 24.493408%)" offset="0.304687"/><stop stop-opacity="1" stop-color="rgb(6.411743%, 6.170654%, 24.806213%)" offset="0.308594"/><stop stop-opacity="1" stop-color="rgb(6.492615%, 6.248474%, 25.120544%)" offset="0.3125"/><stop stop-opacity="1" stop-color="rgb(6.573486%, 6.326294%, 25.434875%)" offset="0.316406"/><stop stop-opacity="1" stop-color="rgb(6.655884%, 6.40564%, 25.749207%)" offset="0.320312"/><stop stop-opacity="1" stop-color="rgb(6.736755%, 6.483459%, 26.063538%)" offset="0.324219"/><stop stop-opacity="1" stop-color="rgb(6.817627%, 6.561279%, 26.377869%)" offset="0.328125"/><stop stop-opacity="1" stop-color="rgb(6.898499%, 6.639099%, 26.690674%)" offset="0.332031"/><stop stop-opacity="1" stop-color="rgb(6.97937%, 6.718445%, 27.005005%)" offset="0.335937"/><stop stop-opacity="1" stop-color="rgb(7.060242%, 6.796265%, 27.319336%)" offset="0.339844"/><stop stop-opacity="1" stop-color="rgb(7.142639%, 6.874084%, 27.633667%)" offset="0.34375"/><stop stop-opacity="1" stop-color="rgb(7.223511%, 6.951904%, 27.946472%)" offset="0.347656"/><stop stop-opacity="1" stop-color="rgb(7.304382%, 7.029724%, 28.260803%)" offset="0.351562"/><stop stop-opacity="1" stop-color="rgb(7.385254%, 7.107544%, 28.575134%)" offset="0.355469"/><stop stop-opacity="1" stop-color="rgb(7.467651%, 7.18689%, 28.889465%)" offset="0.359375"/><stop stop-opacity="1" stop-color="rgb(7.548523%, 7.264709%, 29.203796%)" offset="0.363281"/><stop stop-opacity="1" stop-color="rgb(7.629395%, 7.342529%, 29.518127%)" offset="0.367187"/><stop stop-opacity="1" stop-color="rgb(7.710266%, 7.420349%, 29.830933%)" offset="0.371094"/><stop stop-opacity="1" stop-color="rgb(7.791138%, 7.499695%, 30.145264%)" offset="0.375"/><stop stop-opacity="1" stop-color="rgb(7.872009%, 7.577515%, 30.459595%)" offset="0.378906"/><stop stop-opacity="1" stop-color="rgb(7.954407%, 7.655334%, 30.773926%)" offset="0.382812"/><stop stop-opacity="1" stop-color="rgb(8.035278%, 7.733154%, 31.086731%)" offset="0.386719"/><stop stop-opacity="1" stop-color="rgb(8.11615%, 7.810974%, 31.401062%)" offset="0.390625"/><stop stop-opacity="1" stop-color="rgb(8.197021%, 7.888794%, 31.715393%)" offset="0.394531"/><stop stop-opacity="1" stop-color="rgb(8.279419%, 7.96814%, 32.029724%)" offset="0.398438"/><stop stop-opacity="1" stop-color="rgb(8.360291%, 8.045959%, 32.344055%)" offset="0.402344"/><stop stop-opacity="1" stop-color="rgb(8.441162%, 8.123779%, 32.658386%)" offset="0.40625"/><stop stop-opacity="1" stop-color="rgb(8.522034%, 8.201599%, 32.971191%)" offset="0.410156"/><stop stop-opacity="1" stop-color="rgb(8.602905%, 8.280945%, 33.285522%)" offset="0.414062"/><stop stop-opacity="1" stop-color="rgb(8.683777%, 8.358765%, 33.599854%)" offset="0.417969"/><stop stop-opacity="1" stop-color="rgb(8.766174%, 8.436584%, 33.914185%)" offset="0.421875"/><stop stop-opacity="1" stop-color="rgb(8.847046%, 8.514404%, 34.22699%)" offset="0.425781"/><stop stop-opacity="1" stop-color="rgb(8.927917%, 8.592224%, 34.541321%)" offset="0.429688"/><stop stop-opacity="1" stop-color="rgb(9.008789%, 8.670044%, 34.855652%)" offset="0.433594"/><stop stop-opacity="1" stop-color="rgb(9.091187%, 8.74939%, 35.169983%)" offset="0.4375"/><stop stop-opacity="1" stop-color="rgb(9.172058%, 8.827209%, 35.484314%)" offset="0.441406"/><stop stop-opacity="1" stop-color="rgb(9.25293%, 8.905029%, 35.798645%)" offset="0.445312"/><stop stop-opacity="1" stop-color="rgb(9.333801%, 8.982849%, 36.11145%)" offset="0.449219"/><stop stop-opacity="1" stop-color="rgb(9.414673%, 9.062195%, 36.425781%)" offset="0.453125"/><stop stop-opacity="1" stop-color="rgb(9.495544%, 9.140015%, 36.740112%)" offset="0.457031"/><stop stop-opacity="1" stop-color="rgb(9.577942%, 9.217834%, 37.054443%)" offset="0.460938"/><stop stop-opacity="1" stop-color="rgb(9.658813%, 9.295654%, 37.367249%)" offset="0.464844"/><stop stop-opacity="1" stop-color="rgb(9.739685%, 9.373474%, 37.68158%)" offset="0.46875"/><stop stop-opacity="1" stop-color="rgb(9.820557%, 9.451294%, 37.995911%)" offset="0.472656"/><stop stop-opacity="1" stop-color="rgb(9.902954%, 9.53064%, 38.310242%)" offset="0.476562"/><stop stop-opacity="1" stop-color="rgb(9.983826%, 9.608459%, 38.624573%)" offset="0.480469"/><stop stop-opacity="1" stop-color="rgb(10.064697%, 9.686279%, 38.938904%)" offset="0.484375"/><stop stop-opacity="1" stop-color="rgb(10.145569%, 9.764099%, 39.251709%)" offset="0.488281"/><stop stop-opacity="1" stop-color="rgb(10.22644%, 9.843445%, 39.56604%)" offset="0.492188"/><stop stop-opacity="1" stop-color="rgb(10.307312%, 9.921265%, 39.880371%)" offset="0.496094"/><stop stop-opacity="1" stop-color="rgb(10.389709%, 9.999084%, 40.194702%)" offset="0.5"/><stop stop-opacity="1" stop-color="rgb(10.470581%, 10.076904%, 40.507507%)" offset="0.503906"/><stop stop-opacity="1" stop-color="rgb(10.551453%, 10.154724%, 40.821838%)" offset="0.507812"/><stop stop-opacity="1" stop-color="rgb(10.632324%, 10.232544%, 41.136169%)" offset="0.511719"/><stop stop-opacity="1" stop-color="rgb(10.713196%, 10.31189%, 41.4505%)" offset="0.515625"/><stop stop-opacity="1" stop-color="rgb(10.794067%, 10.389709%, 41.763306%)" offset="0.519531"/><stop stop-opacity="1" stop-color="rgb(10.876465%, 10.467529%, 42.077637%)" offset="0.523437"/><stop stop-opacity="1" stop-color="rgb(10.957336%, 10.545349%, 42.391968%)" offset="0.527344"/><stop stop-opacity="1" stop-color="rgb(11.038208%, 10.624695%, 42.706299%)" offset="0.53125"/><stop stop-opacity="1" stop-color="rgb(11.11908%, 10.702515%, 43.02063%)" offset="0.535156"/><stop stop-opacity="1" stop-color="rgb(11.201477%, 10.780334%, 43.334961%)" offset="0.539062"/><stop stop-opacity="1" stop-color="rgb(11.282349%, 10.858154%, 43.647766%)" offset="0.542969"/><stop stop-opacity="1" stop-color="rgb(11.36322%, 10.935974%, 43.962097%)" offset="0.546875"/><stop stop-opacity="1" stop-color="rgb(11.444092%, 11.013794%, 44.276428%)" offset="0.550781"/><stop stop-opacity="1" stop-color="rgb(11.524963%, 11.09314%, 44.590759%)" offset="0.554687"/><stop stop-opacity="1" stop-color="rgb(11.605835%, 11.170959%, 44.903564%)" offset="0.558594"/><stop stop-opacity="1" stop-color="rgb(11.688232%, 11.248779%, 45.217896%)" offset="0.5625"/><stop stop-opacity="1" stop-color="rgb(11.769104%, 11.326599%, 45.532227%)" offset="0.566406"/><stop stop-opacity="1" stop-color="rgb(11.849976%, 11.405945%, 45.846558%)" offset="0.570312"/><stop stop-opacity="1" stop-color="rgb(11.930847%, 11.483765%, 46.160889%)" offset="0.574219"/><stop stop-opacity="1" stop-color="rgb(12.013245%, 11.561584%, 46.47522%)" offset="0.578125"/><stop stop-opacity="1" stop-color="rgb(12.094116%, 11.639404%, 46.788025%)" offset="0.582031"/><stop stop-opacity="1" stop-color="rgb(12.174988%, 11.717224%, 47.102356%)" offset="0.585937"/><stop stop-opacity="1" stop-color="rgb(12.255859%, 11.795044%, 47.416687%)" offset="0.589844"/><stop stop-opacity="1" stop-color="rgb(12.336731%, 11.87439%, 47.731018%)" offset="0.59375"/><stop stop-opacity="1" stop-color="rgb(12.417603%, 11.952209%, 48.043823%)" offset="0.597656"/><stop stop-opacity="1" stop-color="rgb(12.5%, 12.030029%, 48.358154%)" offset="0.601562"/><stop stop-opacity="1" stop-color="rgb(12.580872%, 12.107849%, 48.672485%)" offset="0.605469"/><stop stop-opacity="1" stop-color="rgb(12.661743%, 12.187195%, 48.986816%)" offset="0.609375"/><stop stop-opacity="1" stop-color="rgb(12.742615%, 12.265015%, 49.301147%)" offset="0.613281"/><stop stop-opacity="1" stop-color="rgb(12.825012%, 12.342834%, 49.615479%)" offset="0.617187"/><stop stop-opacity="1" stop-color="rgb(12.905884%, 12.420654%, 49.928284%)" offset="0.621094"/><stop stop-opacity="1" stop-color="rgb(12.986755%, 12.498474%, 50.242615%)" offset="0.625"/><stop stop-opacity="1" stop-color="rgb(13.067627%, 12.576294%, 50.556946%)" offset="0.628906"/><stop stop-opacity="1" stop-color="rgb(13.148499%, 12.65564%, 50.871277%)" offset="0.632812"/><stop stop-opacity="1" stop-color="rgb(13.22937%, 12.733459%, 51.184082%)" offset="0.636719"/><stop stop-opacity="1" stop-color="rgb(13.311768%, 12.811279%, 51.498413%)" offset="0.640625"/><stop stop-opacity="1" stop-color="rgb(13.392639%, 12.889099%, 51.812744%)" offset="0.644531"/><stop stop-opacity="1" stop-color="rgb(13.473511%, 12.968445%, 52.127075%)" offset="0.648437"/><stop stop-opacity="1" stop-color="rgb(13.554382%, 13.046265%, 52.441406%)" offset="0.652344"/><stop stop-opacity="1" stop-color="rgb(13.63678%, 13.124084%, 52.755737%)" offset="0.65625"/><stop stop-opacity="1" stop-color="rgb(13.717651%, 13.201904%, 53.068542%)" offset="0.660156"/><stop stop-opacity="1" stop-color="rgb(13.798523%, 13.279724%, 53.382874%)" offset="0.664062"/><stop stop-opacity="1" stop-color="rgb(13.879395%, 13.357544%, 53.697205%)" offset="0.667969"/><stop stop-opacity="1" stop-color="rgb(13.960266%, 13.43689%, 54.011536%)" offset="0.671875"/><stop stop-opacity="1" stop-color="rgb(14.041138%, 13.514709%, 54.324341%)" offset="0.675781"/><stop stop-opacity="1" stop-color="rgb(14.123535%, 13.592529%, 54.638672%)" offset="0.679687"/><stop stop-opacity="1" stop-color="rgb(14.204407%, 13.670349%, 54.953003%)" offset="0.683594"/><stop stop-opacity="1" stop-color="rgb(14.285278%, 13.749695%, 55.267334%)" offset="0.6875"/><stop stop-opacity="1" stop-color="rgb(14.36615%, 13.827515%, 55.581665%)" offset="0.691406"/><stop stop-opacity="1" stop-color="rgb(14.448547%, 13.905334%, 55.895996%)" offset="0.695312"/><stop stop-opacity="1" stop-color="rgb(14.529419%, 13.983154%, 56.208801%)" offset="0.699219"/><stop stop-opacity="1" stop-color="rgb(14.610291%, 14.060974%, 56.523132%)" offset="0.703125"/><stop stop-opacity="1" stop-color="rgb(14.691162%, 14.138794%, 56.837463%)" offset="0.707031"/><stop stop-opacity="1" stop-color="rgb(14.772034%, 14.21814%, 57.151794%)" offset="0.710937"/><stop stop-opacity="1" stop-color="rgb(14.852905%, 14.295959%, 57.4646%)" offset="0.714844"/><stop stop-opacity="1" stop-color="rgb(14.935303%, 14.373779%, 57.778931%)" offset="0.71875"/><stop stop-opacity="1" stop-color="rgb(15.016174%, 14.451599%, 58.093262%)" offset="0.722656"/><stop stop-opacity="1" stop-color="rgb(15.097046%, 14.530945%, 58.407593%)" offset="0.726562"/><stop stop-opacity="1" stop-color="rgb(15.177917%, 14.608765%, 58.721924%)" offset="0.730469"/><stop stop-opacity="1" stop-color="rgb(15.258789%, 14.686584%, 59.036255%)" offset="0.734375"/><stop stop-opacity="1" stop-color="rgb(15.339661%, 14.764404%, 59.34906%)" offset="0.738281"/><stop stop-opacity="1" stop-color="rgb(15.422058%, 14.842224%, 59.663391%)" offset="0.742187"/><stop stop-opacity="1" stop-color="rgb(15.50293%, 14.920044%, 59.977722%)" offset="0.746094"/><stop stop-opacity="1" stop-color="rgb(15.583801%, 14.99939%, 60.292053%)" offset="0.75"/><stop stop-opacity="1" stop-color="rgb(15.664673%, 15.077209%, 60.604858%)" offset="0.753906"/><stop stop-opacity="1" stop-color="rgb(15.74707%, 15.155029%, 60.919189%)" offset="0.757812"/><stop stop-opacity="1" stop-color="rgb(15.827942%, 15.232849%, 61.233521%)" offset="0.761719"/><stop stop-opacity="1" stop-color="rgb(15.908813%, 15.312195%, 61.547852%)" offset="0.765625"/><stop stop-opacity="1" stop-color="rgb(15.989685%, 15.390015%, 61.862183%)" offset="0.769531"/><stop stop-opacity="1" stop-color="rgb(16.070557%, 15.467834%, 62.176514%)" offset="0.773438"/><stop stop-opacity="1" stop-color="rgb(16.151428%, 15.545654%, 62.489319%)" offset="0.777344"/><stop stop-opacity="1" stop-color="rgb(16.233826%, 15.623474%, 62.80365%)" offset="0.78125"/><stop stop-opacity="1" stop-color="rgb(16.314697%, 15.701294%, 63.117981%)" offset="0.785156"/><stop stop-opacity="1" stop-color="rgb(16.395569%, 15.78064%, 63.432312%)" offset="0.789062"/><stop stop-opacity="1" stop-color="rgb(16.47644%, 15.858459%, 63.745117%)" offset="0.792969"/><stop stop-opacity="1" stop-color="rgb(16.558838%, 15.936279%, 64.059448%)" offset="0.796875"/><stop stop-opacity="1" stop-color="rgb(16.639709%, 16.014099%, 64.373779%)" offset="0.800781"/><stop stop-opacity="1" stop-color="rgb(16.720581%, 16.093445%, 64.68811%)" offset="0.804688"/><stop stop-opacity="1" stop-color="rgb(16.801453%, 16.171265%, 65.002441%)" offset="0.808594"/><stop stop-opacity="1" stop-color="rgb(16.882324%, 16.249084%, 65.316772%)" offset="0.8125"/><stop stop-opacity="1" stop-color="rgb(16.963196%, 16.326904%, 65.629578%)" offset="0.816406"/><stop stop-opacity="1" stop-color="rgb(17.045593%, 16.404724%, 65.943909%)" offset="0.820312"/><stop stop-opacity="1" stop-color="rgb(17.126465%, 16.482544%, 66.25824%)" offset="0.824219"/><stop stop-opacity="1" stop-color="rgb(17.207336%, 16.56189%, 66.572571%)" offset="0.828125"/><stop stop-opacity="1" stop-color="rgb(17.288208%, 16.639709%, 66.885376%)" offset="0.832031"/><stop stop-opacity="1" stop-color="rgb(17.370605%, 16.717529%, 67.199707%)" offset="0.835938"/><stop stop-opacity="1" stop-color="rgb(17.451477%, 16.795349%, 67.514038%)" offset="0.839844"/><stop stop-opacity="1" stop-color="rgb(17.532349%, 16.874695%, 67.828369%)" offset="0.84375"/><stop stop-opacity="1" stop-color="rgb(17.61322%, 16.952515%, 68.1427%)" offset="0.847656"/><stop stop-opacity="1" stop-color="rgb(17.694092%, 17.030334%, 68.457031%)" offset="0.851562"/><stop stop-opacity="1" stop-color="rgb(17.774963%, 17.108154%, 68.769836%)" offset="0.855469"/><stop stop-opacity="1" stop-color="rgb(17.857361%, 17.185974%, 69.084167%)" offset="0.859375"/><stop stop-opacity="1" stop-color="rgb(17.938232%, 17.263794%, 69.398499%)" offset="0.863281"/><stop stop-opacity="1" stop-color="rgb(18.019104%, 17.34314%, 69.71283%)" offset="0.867188"/><stop stop-opacity="1" stop-color="rgb(18.099976%, 17.420959%, 70.025635%)" offset="0.871094"/><stop stop-opacity="1" stop-color="rgb(18.182373%, 17.498779%, 70.339966%)" offset="0.875"/><stop stop-opacity="1" stop-color="rgb(18.263245%, 17.576599%, 70.654297%)" offset="0.878906"/><stop stop-opacity="1" stop-color="rgb(18.344116%, 17.655945%, 70.968628%)" offset="0.882812"/><stop stop-opacity="1" stop-color="rgb(18.424988%, 17.733765%, 71.282959%)" offset="0.886719"/><stop stop-opacity="1" stop-color="rgb(18.505859%, 17.811584%, 71.59729%)" offset="0.890625"/><stop stop-opacity="1" stop-color="rgb(18.586731%, 17.889404%, 71.910095%)" offset="0.894531"/><stop stop-opacity="1" stop-color="rgb(18.669128%, 17.967224%, 72.224426%)" offset="0.898438"/><stop stop-opacity="1" stop-color="rgb(18.75%, 18.045044%, 72.538757%)" offset="0.902344"/><stop stop-opacity="1" stop-color="rgb(18.830872%, 18.12439%, 72.853088%)" offset="0.90625"/><stop stop-opacity="1" stop-color="rgb(18.911743%, 18.202209%, 73.165894%)" offset="0.910156"/><stop stop-opacity="1" stop-color="rgb(18.994141%, 18.280029%, 73.480225%)" offset="0.914062"/><stop stop-opacity="1" stop-color="rgb(19.075012%, 18.357849%, 73.794556%)" offset="0.917969"/><stop stop-opacity="1" stop-color="rgb(19.155884%, 18.437195%, 74.108887%)" offset="0.921875"/><stop stop-opacity="1" stop-color="rgb(19.236755%, 18.515015%, 74.423218%)" offset="0.925781"/><stop stop-opacity="1" stop-color="rgb(19.317627%, 18.592834%, 74.737549%)" offset="0.929688"/><stop stop-opacity="1" stop-color="rgb(19.398499%, 18.670654%, 75.050354%)" offset="0.933594"/><stop stop-opacity="1" stop-color="rgb(19.480896%, 18.748474%, 75.364685%)" offset="0.9375"/><stop stop-opacity="1" stop-color="rgb(19.561768%, 18.826294%, 75.679016%)" offset="0.941406"/><stop stop-opacity="1" stop-color="rgb(19.642639%, 18.90564%, 75.993347%)" offset="0.945312"/><stop stop-opacity="1" stop-color="rgb(19.723511%, 18.983459%, 76.306152%)" offset="0.949219"/><stop stop-opacity="1" stop-color="rgb(19.805908%, 19.061279%, 76.620483%)" offset="0.953125"/><stop stop-opacity="1" stop-color="rgb(19.88678%, 19.139099%, 76.934814%)" offset="0.957031"/><stop stop-opacity="1" stop-color="rgb(19.967651%, 19.218445%, 77.249146%)" offset="0.960938"/><stop stop-opacity="1" stop-color="rgb(20.048523%, 19.296265%, 77.563477%)" offset="0.964844"/><stop stop-opacity="1" stop-color="rgb(20.129395%, 19.374084%, 77.877808%)" offset="0.96875"/><stop stop-opacity="1" stop-color="rgb(20.210266%, 19.451904%, 78.190613%)" offset="0.972656"/><stop stop-opacity="1" stop-color="rgb(20.292664%, 19.529724%, 78.504944%)" offset="0.976562"/><stop stop-opacity="1" stop-color="rgb(20.373535%, 19.607544%, 78.819275%)" offset="0.980469"/><stop stop-opacity="1" stop-color="rgb(20.454407%, 19.68689%, 79.133606%)" offset="0.984375"/><stop stop-opacity="1" stop-color="rgb(20.535278%, 19.764709%, 79.446411%)" offset="0.988281"/><stop stop-opacity="1" stop-color="rgb(20.61615%, 19.842529%, 79.760742%)" offset="0.992188"/><stop stop-opacity="1" stop-color="rgb(20.697021%, 19.920349%, 80.075073%)" offset="0.996094"/><stop stop-opacity="1" stop-color="rgb(20.779419%, 19.999695%, 80.389404%)" offset="1"/></linearGradient><clipPath id="776f2eb296"><path d="M 56.449219 139.941406 L 318.199219 139.941406 L 318.199219 193.941406 L 56.449219 193.941406 Z M 56.449219 139.941406 " clip-rule="nonzero"/></clipPath><clipPath id="1c1c15e834"><path d="M 0.800781 22 L 13.761719 22 L 13.761719 42.6875 L 0.800781 42.6875 Z M 0.800781 22 " clip-rule="nonzero"/></clipPath><clipPath id="a6a9214071"><path d="M 4 1 L 262.199219 1 L 262.199219 44 L 4 44 Z M 4 1 " clip-rule="nonzero"/></clipPath><clipPath id="766e09164a"><path d="M 94 44.332031 L 173.601562 44.332031 L 173.601562 54.941406 L 94 54.941406 Z M 94 44.332031 " clip-rule="nonzero"/></clipPath><clipPath id="157759f890"><rect x="0" width="263" y="0" height="55"/></clipPath><clipPath id="b33388ecc2"><rect x="0" width="305" y="0" height="29"/></clipPath><clipPath id="13dda9269d"><path d="M 71.722656 227.734375 L 88.972656 227.734375 L 88.972656 229.160156 L 71.722656 229.160156 Z M 71.722656 227.734375 " clip-rule="nonzero"/></clipPath><clipPath id="4c98944206"><path d="M 286 227.734375 L 303.246094 227.734375 L 303.246094 229.160156 L 286 229.160156 Z M 286 227.734375 " clip-rule="nonzero"/></clipPath></defs><rect x="-37.5" width="450" fill="#ffffff" y="-37.499999" height="449.999989" fill-opacity="1"/><rect x="-37.5" fill="url(#e30918cb7d)" width="450" y="-37.499999" height="449.999989"/><g clip-path="url(#776f2eb296)"><g transform="matrix(1, 0, 0, 1, 56, 139)"><g clip-path="url(#157759f890)"><path fill="#e52024" d="M 237.660156 32.980469 L 242.9375 38.769531 C 243.5625 39.460938 244.417969 39.902344 245.339844 40.015625 L 252.785156 40.941406 C 252.957031 40.960938 253.082031 41.113281 253.074219 41.285156 C 253.0625 41.460938 252.917969 41.597656 252.742188 41.597656 L 243.003906 41.597656 C 242.894531 41.597656 242.792969 41.542969 242.730469 41.453125 L 237.148438 33.390625 C 237.050781 33.246094 237.078125 33.050781 237.214844 32.941406 C 237.347656 32.835938 237.546875 32.851562 237.660156 32.980469 " fill-opacity="1" fill-rule="nonzero"/><g clip-path="url(#1c1c15e834)"><path fill="#e52024" d="M 0.476562 42.386719 L 8.089844 26.492188 C 8.132812 26.398438 8.136719 26.292969 8.089844 26.199219 C 8.046875 26.101562 7.964844 26.027344 7.859375 25.992188 L 7.160156 25.742188 C 7.074219 25.714844 7.03125 25.628906 7.0625 25.550781 L 8.464844 22.160156 C 8.492188 22.097656 8.566406 22.054688 8.640625 22.066406 L 13.371094 22.6875 C 13.425781 22.691406 13.472656 22.722656 13.496094 22.769531 C 13.519531 22.8125 13.519531 22.867188 13.488281 22.910156 L 0.769531 42.523438 C 0.738281 42.570312 0.683594 42.597656 0.628906 42.597656 C 0.601562 42.597656 0.574219 42.589844 0.550781 42.582031 C 0.476562 42.542969 0.441406 42.460938 0.476562 42.386719 " fill-opacity="1" fill-rule="nonzero"/></g><g clip-path="url(#a6a9214071)"><path fill="#f5f6f5" d="M 4.492188 17 L 4.71875 17.800781 C 5.347656 20.015625 7.597656 21.347656 9.839844 20.828125 C 10.640625 20.644531 11.359375 20.480469 11.757812 20.398438 C 12.414062 20.289062 13.132812 20.183594 13.890625 20.066406 C 14.652344 19.953125 15.457031 19.808594 16.324219 19.722656 C 17.191406 19.625 18.105469 19.519531 19.058594 19.40625 C 20.019531 19.300781 21.039062 19.234375 22.089844 19.136719 C 22.617188 19.089844 23.152344 19.046875 23.703125 19 C 24.253906 18.964844 24.816406 18.929688 25.390625 18.894531 C 26.539062 18.832031 27.722656 18.742188 28.953125 18.695312 C 33.871094 18.453125 39.457031 18.375 45.558594 18.398438 C 51.65625 18.441406 58.277344 18.640625 65.28125 18.960938 C 72.285156 19.28125 79.671875 19.71875 87.3125 20.253906 C 91.132812 20.519531 95.019531 20.8125 98.945312 21.121094 C 102.875 21.441406 106.851562 21.796875 110.863281 22.160156 C 118.878906 22.886719 127.015625 23.6875 135.160156 24.511719 C 139.226562 24.925781 143.296875 25.335938 147.355469 25.75 C 149.390625 25.949219 151.414062 26.148438 153.433594 26.347656 C 154.449219 26.441406 155.457031 26.535156 156.46875 26.628906 C 157.46875 26.722656 158.5 26.792969 159.503906 26.867188 C 163.539062 27.191406 167.570312 27.367188 171.554688 27.367188 C 175.539062 27.394531 179.480469 27.222656 183.328125 26.910156 C 187.171875 26.605469 190.921875 26.203125 194.585938 25.914062 C 198.246094 25.621094 201.839844 25.433594 205.320312 25.34375 C 206.199219 25.328125 207.070312 25.3125 207.9375 25.300781 C 208.371094 25.296875 208.800781 25.289062 209.234375 25.285156 L 209.558594 25.28125 L 209.859375 25.285156 L 210.488281 25.296875 C 210.90625 25.308594 211.320312 25.308594 211.730469 25.328125 C 212.148438 25.359375 212.558594 25.390625 212.96875 25.414062 C 213.792969 25.460938 214.601562 25.578125 215.410156 25.667969 C 218.632812 26.082031 221.722656 26.75 224.65625 27.53125 C 230.515625 29.105469 235.746094 31.101562 240.304688 33.019531 C 244.851562 34.984375 248.730469 36.902344 251.882812 38.546875 C 255.039062 40.1875 257.464844 41.574219 259.101562 42.546875 C 259.925781 43.035156 260.542969 43.410156 260.960938 43.664062 C 261.078125 43.738281 261.210938 43.773438 261.339844 43.773438 C 261.585938 43.773438 261.824219 43.652344 261.957031 43.429688 C 262.546875 42.464844 262.222656 41.203125 261.242188 40.644531 C 261 40.503906 260.734375 40.351562 260.441406 40.1875 C 258.753906 39.238281 256.269531 37.875 253.050781 36.253906 C 249.828125 34.632812 245.871094 32.75 241.226562 30.824219 C 236.589844 28.894531 231.261719 26.886719 225.242188 25.296875 C 222.230469 24.507812 219.050781 23.832031 215.691406 23.417969 C 214.851562 23.328125 214.007812 23.210938 213.144531 23.164062 C 212.714844 23.136719 212.28125 23.105469 211.847656 23.070312 C 211.414062 23.054688 210.976562 23.046875 210.535156 23.035156 L 209.875 23.023438 L 209.535156 23.015625 L 209.210938 23.019531 C 208.78125 23.023438 208.351562 23.027344 207.917969 23.03125 C 207.050781 23.042969 206.175781 23.054688 205.296875 23.066406 C 201.742188 23.148438 198.113281 23.328125 194.410156 23.613281 C 190.710938 23.890625 186.953125 24.285156 183.148438 24.574219 C 179.351562 24.871094 175.492188 25.03125 171.578125 24.988281 C 167.667969 24.945312 163.707031 24.726562 159.714844 24.363281 C 158.710938 24.273438 157.726562 24.199219 156.71875 24.089844 C 155.714844 23.984375 154.707031 23.882812 153.703125 23.777344 C 151.691406 23.554688 149.667969 23.332031 147.644531 23.113281 C 143.597656 22.652344 139.53125 22.195312 135.464844 21.738281 C 119.199219 19.894531 102.902344 18.175781 87.597656 16.875 C 84.390625 16.597656 81.230469 16.339844 78.117188 16.109375 C 77.851562 16.085938 77.582031 16.066406 77.3125 16.046875 C 77.6875 15.886719 78.09375 15.71875 78.535156 15.542969 C 82.855469 13.8125 90.503906 11.175781 102.410156 8.417969 C 114.976562 5.503906 129.289062 6.199219 139.472656 7.378906 C 146.5625 8.203125 153.542969 9.816406 160.257812 12.242188 C 160.289062 12.253906 160.320312 12.265625 160.351562 12.277344 C 168.445312 15.203125 174.976562 18.246094 179.46875 20.5 C 181.710938 21.628906 183.449219 22.566406 184.621094 23.21875 C 185.003906 23.429688 185.359375 23.644531 185.640625 23.816406 C 185.644531 23.816406 185.644531 23.820312 185.648438 23.820312 C 185.652344 23.824219 185.660156 23.828125 185.667969 23.832031 C 185.953125 23.992188 186.359375 24.042969 186.414062 24.046875 C 186.417969 24.046875 186.421875 24.046875 186.421875 24.046875 C 187.03125 24.019531 188.199219 23.917969 189.027344 23.84375 C 189.066406 23.839844 189.105469 23.835938 189.140625 23.832031 C 189.148438 23.832031 189.160156 23.832031 189.171875 23.832031 C 189.78125 23.742188 189.554688 23.511719 189.378906 23.390625 C 189.367188 23.382812 189.359375 23.375 189.347656 23.371094 C 189.332031 23.363281 189.3125 23.351562 189.296875 23.339844 C 189.28125 23.332031 189.265625 23.320312 189.25 23.3125 C 189.246094 23.308594 189.246094 23.308594 189.246094 23.308594 C 188.433594 22.808594 187.195312 22.046875 187.125 22.003906 C 186.816406 21.824219 186.363281 21.558594 185.769531 21.210938 C 184.582031 20.53125 182.828125 19.550781 180.570312 18.375 C 176.042969 16.027344 169.480469 12.851562 161.296875 9.761719 C 157.207031 8.214844 152.710938 6.703125 147.871094 5.378906 C 143.035156 4.050781 137.855469 2.898438 132.417969 2.113281 C 126.984375 1.363281 121.289062 0.992188 115.507812 1.234375 C 114.78125 1.257812 114.058594 1.332031 113.335938 1.375 L 112.242188 1.457031 L 111.695312 1.496094 L 111.160156 1.546875 C 109.730469 1.691406 108.300781 1.835938 106.867188 1.976562 C 104 2.261719 101.113281 2.589844 98.230469 2.894531 C 92.472656 3.546875 86.714844 4.222656 81.058594 4.933594 C 78.230469 5.285156 75.425781 5.640625 72.652344 6.007812 C 69.882812 6.363281 67.144531 6.730469 64.453125 7.097656 C 61.765625 7.46875 59.117188 7.835938 56.53125 8.195312 C 53.941406 8.546875 51.414062 8.9375 48.949219 9.304688 C 48.238281 9.410156 47.535156 9.519531 46.832031 9.625 C 46.320312 9.707031 45.8125 9.78125 45.3125 9.859375 L 78.046875 15.621094 C 78.046875 15.621094 78.015625 15.617188 77.945312 15.613281 C 77.925781 15.613281 77.902344 15.609375 77.878906 15.609375 C 76.367188 15.488281 64.875 14.632812 50.820312 14.3125 C 35.15625 13.953125 16.296875 14.257812 4.507812 17 C 4.503906 17 4.496094 17 4.492188 17 " fill-opacity="1" fill-rule="nonzero"/></g><path fill="#f5f6f5" d="M 157.800781 20.65625 L 157.800781 19.757812 C 157.800781 19.164062 158.125 18.621094 158.644531 18.335938 L 160.417969 17.367188 C 161.066406 17.015625 161.832031 16.960938 162.519531 17.226562 L 170.007812 20.070312 C 170.425781 20.230469 170.710938 20.640625 170.710938 21.089844 L 170.710938 22.484375 C 170.710938 22.605469 170.664062 22.722656 170.585938 22.8125 L 169.621094 23.898438 C 169.527344 24.003906 169.394531 24.0625 169.25 24.0625 L 165.160156 24.0625 C 164.984375 24.0625 164.824219 23.972656 164.734375 23.824219 C 164.644531 23.675781 164.640625 23.488281 164.722656 23.335938 L 164.984375 22.847656 L 158.652344 21.679688 C 158.160156 21.589844 157.800781 21.160156 157.800781 20.65625 " fill-opacity="1" fill-rule="nonzero"/><path fill="#f5f6f5" d="M 72.675781 22.597656 L 77.921875 20.808594 C 78.070312 20.757812 78.242188 20.804688 78.328125 20.921875 C 78.410156 21.035156 78.386719 21.183594 78.265625 21.273438 L 75.453125 23.335938 C 75.21875 23.507812 75.15625 23.792969 75.300781 24.023438 L 88.222656 44.578125 L 94.539062 48.859375 C 94.675781 48.953125 94.703125 49.117188 94.597656 49.238281 C 94.535156 49.3125 94.433594 49.351562 94.332031 49.351562 C 94.269531 49.351562 94.207031 49.335938 94.148438 49.304688 L 87.230469 45.445312 C 87.183594 45.421875 87.148438 45.386719 87.125 45.347656 L 72.511719 22.988281 C 72.46875 22.917969 72.460938 22.835938 72.492188 22.761719 C 72.523438 22.6875 72.589844 22.628906 72.675781 22.597656 " fill-opacity="1" fill-rule="nonzero"/><g clip-path="url(#766e09164a)"><path fill="#f5f6f5" d="M 94.167969 44.464844 C 94.183594 44.390625 94.261719 44.335938 94.351562 44.347656 L 169.796875 52.128906 C 169.851562 52.136719 169.898438 52.164062 169.921875 52.207031 C 169.949219 52.25 169.945312 52.296875 169.914062 52.339844 L 169.113281 53.433594 L 173.210938 54.683594 C 173.289062 54.710938 173.332031 54.78125 173.3125 54.847656 C 173.292969 54.910156 173.226562 54.953125 173.152344 54.953125 C 173.144531 54.953125 173.136719 54.953125 173.128906 54.949219 L 94.308594 44.617188 C 94.21875 44.609375 94.15625 44.539062 94.167969 44.464844 " fill-opacity="1" fill-rule="nonzero"/></g><path fill="#f5f6f5" d="M 211.054688 32.214844 C 219.457031 32.214844 227.300781 36.734375 231.53125 44.007812 C 231.65625 44.222656 231.59375 44.488281 231.382812 44.625 C 231.300781 44.671875 231.214844 44.699219 231.132812 44.699219 C 230.988281 44.699219 230.847656 44.628906 230.757812 44.5 C 226.3125 38.128906 218.761719 34.171875 211.054688 34.171875 C 204.109375 34.171875 196.929688 37.539062 192.320312 42.957031 C 192.160156 43.148438 191.886719 43.175781 191.691406 43.023438 C 191.496094 42.871094 191.453125 42.605469 191.59375 42.398438 C 196.023438 36.019531 203.296875 32.214844 211.054688 32.214844 " fill-opacity="1" fill-rule="nonzero"/><path fill="#f5f6f5" d="M 40.921875 27.269531 C 49.324219 27.269531 57.171875 31.789062 61.398438 39.066406 C 61.523438 39.28125 61.460938 39.546875 61.25 39.679688 C 61.171875 39.730469 61.085938 39.753906 60.996094 39.753906 C 60.855469 39.753906 60.714844 39.683594 60.625 39.554688 C 56.179688 33.183594 48.628906 29.226562 40.921875 29.226562 C 33.976562 29.226562 26.800781 32.59375 22.1875 38.015625 C 22.027344 38.203125 21.757812 38.234375 21.558594 38.082031 C 21.363281 37.929688 21.320312 37.660156 21.460938 37.457031 C 25.890625 31.078125 33.167969 27.269531 40.921875 27.269531 " fill-opacity="1" fill-rule="nonzero"/><path fill="#f5f6f5" d="M 189.027344 23.84375 C 189.066406 23.84375 189.109375 23.839844 189.140625 23.832031 C 189.105469 23.835938 189.066406 23.839844 189.027344 23.84375 " fill-opacity="1" fill-rule="nonzero"/></g></g></g><g transform="matrix(1, 0, 0, 1, 39, 194)"><g clip-path="url(#b33388ecc2)"><g fill="#f5f6f5" fill-opacity="1"><g transform="translate(1.484487, 23.135451)"><g><path d="M 18.3125 0 C 19.957031 0 21.359375 -0.578125 22.515625 -1.734375 C 23.679688 -2.898438 24.265625 -4.304688 24.265625 -5.953125 L 24.265625 -18.71875 L 21.296875 -18.71875 L 21.296875 -5.953125 C 21.296875 -5.128906 21.003906 -4.425781 20.421875 -3.84375 C 19.835938 -3.257812 19.132812 -2.96875 18.3125 -2.96875 L 7.90625 -2.96875 C 7.082031 -2.96875 6.378906 -3.257812 5.796875 -3.84375 C 5.222656 -4.425781 4.9375 -5.128906 4.9375 -5.953125 L 4.9375 -18.71875 L 1.953125 -18.71875 L 1.953125 -5.953125 C 1.953125 -4.304688 2.53125 -2.898438 3.6875 -1.734375 C 4.851562 -0.578125 6.257812 0 7.90625 0 Z M 18.3125 0 "/></g></g></g><g fill="#f5f6f5" fill-opacity="1"><g transform="translate(36.642702, 23.135451)"><g><path d="M 24.921875 0 L 21.9375 0 L 21.9375 -5.28125 C 21.9375 -5.6875 21.789062 -6.035156 21.5 -6.328125 C 21.207031 -6.617188 20.859375 -6.765625 20.453125 -6.765625 L 5.59375 -6.765625 L 5.59375 0 L 2.609375 0 L 2.609375 -18.71875 L 20.453125 -18.71875 C 21.679688 -18.71875 22.734375 -18.28125 23.609375 -17.40625 C 24.484375 -16.539062 24.921875 -15.492188 24.921875 -14.265625 L 24.921875 -11.21875 C 24.921875 -10.070312 24.535156 -9.082031 23.765625 -8.25 C 24.535156 -7.40625 24.921875 -6.414062 24.921875 -5.28125 Z M 20.453125 -9.734375 C 20.859375 -9.734375 21.207031 -9.878906 21.5 -10.171875 C 21.789062 -10.460938 21.9375 -10.8125 21.9375 -11.21875 L 21.9375 -14.265625 C 21.9375 -14.671875 21.789062 -15.019531 21.5 -15.3125 C 21.207031 -15.601562 20.859375 -15.75 20.453125 -15.75 L 5.59375 -15.75 L 5.59375 -9.734375 Z M 20.453125 -9.734375 "/></g></g></g><g fill="#f5f6f5" fill-opacity="1"><g transform="translate(72.453596, 23.135451)"><g><path d="M 20.453125 0 L 2.609375 0 L 2.609375 -18.71875 L 20.453125 -18.71875 C 21.679688 -18.71875 22.734375 -18.28125 23.609375 -17.40625 C 24.484375 -16.539062 24.921875 -15.492188 24.921875 -14.265625 L 24.921875 -12.328125 C 24.921875 -11.191406 24.539062 -10.203125 23.78125 -9.359375 C 24.539062 -8.523438 24.921875 -7.535156 24.921875 -6.390625 L 24.921875 -4.46875 C 24.921875 -3.238281 24.484375 -2.1875 23.609375 -1.3125 C 22.734375 -0.4375 21.679688 0 20.453125 0 Z M 20.5 -10.84375 C 20.90625 -10.875 21.242188 -11.03125 21.515625 -11.3125 C 21.796875 -11.59375 21.9375 -11.929688 21.9375 -12.328125 L 21.9375 -14.265625 C 21.9375 -14.671875 21.789062 -15.019531 21.5 -15.3125 C 21.207031 -15.601562 20.859375 -15.75 20.453125 -15.75 L 5.59375 -15.75 L 5.59375 -10.84375 Z M 20.453125 -2.96875 C 20.859375 -2.96875 21.207031 -3.113281 21.5 -3.40625 C 21.789062 -3.695312 21.9375 -4.050781 21.9375 -4.46875 L 21.9375 -6.390625 C 21.9375 -6.796875 21.796875 -7.140625 21.515625 -7.421875 C 21.242188 -7.703125 20.90625 -7.851562 20.5 -7.875 L 5.59375 -7.875 L 5.59375 -2.96875 Z M 20.453125 -2.96875 "/></g></g></g><g fill="#f5f6f5" fill-opacity="1"><g transform="translate(108.264489, 23.135451)"><g><path d="M 27.296875 0 L 23.6875 0 L 20.953125 -4.0625 L 6.734375 -4.0625 L 3.984375 0 L 0.390625 0 L 13.046875 -18.71875 L 14.640625 -18.71875 Z M 18.9375 -7.03125 L 13.84375 -14.578125 L 8.734375 -7.03125 Z M 18.9375 -7.03125 "/></g></g></g><g fill="#f5f6f5" fill-opacity="1"><g transform="translate(144.884704, 23.135451)"><g><path d="M 24.921875 0 L 22.890625 0 L 5.59375 -14.109375 L 5.59375 0 L 2.609375 0 L 2.609375 -18.71875 L 4.625 -18.71875 L 21.9375 -4.625 L 21.9375 -18.71875 L 24.921875 -18.71875 Z M 24.921875 0 "/></g></g></g><g fill="#f5f6f5" fill-opacity="1"><g transform="translate(181.348276, 23.135451)"><g><path d="M 24.921875 0 L 21.9375 0 L 21.9375 -5.28125 C 21.9375 -5.6875 21.789062 -6.035156 21.5 -6.328125 C 21.207031 -6.617188 20.859375 -6.765625 20.453125 -6.765625 L 5.59375 -6.765625 L 5.59375 0 L 2.609375 0 L 2.609375 -18.71875 L 20.453125 -18.71875 C 21.679688 -18.71875 22.734375 -18.28125 23.609375 -17.40625 C 24.484375 -16.539062 24.921875 -15.492188 24.921875 -14.265625 L 24.921875 -11.21875 C 24.921875 -10.070312 24.535156 -9.082031 23.765625 -8.25 C 24.535156 -7.40625 24.921875 -6.414062 24.921875 -5.28125 Z M 20.453125 -9.734375 C 20.859375 -9.734375 21.207031 -9.878906 21.5 -10.171875 C 21.789062 -10.460938 21.9375 -10.8125 21.9375 -11.21875 L 21.9375 -14.265625 C 21.9375 -14.671875 21.789062 -15.019531 21.5 -15.3125 C 21.207031 -15.601562 20.859375 -15.75 20.453125 -15.75 L 5.59375 -15.75 L 5.59375 -9.734375 Z M 20.453125 -9.734375 "/></g></g></g><g fill="#f5f6f5" fill-opacity="1"><g transform="translate(217.159169, 23.135451)"><g><path d="M 5.59375 0 L 5.59375 -18.71875 L 2.609375 -18.71875 L 2.609375 0 Z M 5.59375 0 "/></g></g></g><g fill="#f5f6f5" fill-opacity="1"><g transform="translate(234.290409, 23.135451)"><g><path d="M 18.96875 0 C 20.613281 0 22.015625 -0.578125 23.171875 -1.734375 C 24.335938 -2.898438 24.921875 -4.304688 24.921875 -5.953125 L 24.921875 -12.78125 C 24.921875 -14.414062 24.335938 -15.8125 23.171875 -16.96875 C 22.015625 -18.132812 20.613281 -18.71875 18.96875 -18.71875 L 2.609375 -18.71875 L 2.609375 0 Z M 18.96875 -2.96875 L 5.59375 -2.96875 L 5.59375 -15.75 L 18.96875 -15.75 C 19.78125 -15.75 20.476562 -15.457031 21.0625 -14.875 C 21.644531 -14.289062 21.9375 -13.59375 21.9375 -12.78125 L 21.9375 -5.953125 C 21.9375 -5.128906 21.644531 -4.425781 21.0625 -3.84375 C 20.476562 -3.257812 19.78125 -2.96875 18.96875 -2.96875 Z M 18.96875 -2.96875 "/></g></g></g><g fill="#f5f6f5" fill-opacity="1"><g transform="translate(270.101303, 23.135451)"><g><path d="M 23.4375 0 L 2.609375 0 L 2.609375 -18.71875 L 23.4375 -18.71875 L 23.4375 -15.75 L 5.59375 -15.75 L 5.59375 -10.84375 L 21.3125 -10.84375 L 21.3125 -7.875 L 5.59375 -7.875 L 5.59375 -2.96875 L 23.4375 -2.96875 Z M 23.4375 0 "/></g></g></g></g></g><g fill="#a6a6a6" fill-opacity="1"><g transform="translate(138.069524, 232.417089)"><g><path d="M 6.359375 0 C 6.929688 0 7.414062 -0.195312 7.8125 -0.59375 C 8.21875 -1 8.421875 -1.488281 8.421875 -2.0625 L 7.390625 -2.0625 C 7.390625 -1.78125 7.285156 -1.535156 7.078125 -1.328125 C 6.878906 -1.128906 6.640625 -1.03125 6.359375 -1.03125 L 2.75 -1.03125 C 2.457031 -1.03125 2.210938 -1.128906 2.015625 -1.328125 C 1.816406 -1.535156 1.71875 -1.78125 1.71875 -2.0625 L 1.71875 -4.4375 C 1.71875 -4.71875 1.816406 -4.957031 2.015625 -5.15625 C 2.210938 -5.363281 2.457031 -5.46875 2.75 -5.46875 L 6.359375 -5.46875 C 6.640625 -5.46875 6.878906 -5.363281 7.078125 -5.15625 C 7.285156 -4.957031 7.390625 -4.71875 7.390625 -4.4375 L 8.421875 -4.4375 C 8.421875 -5 8.21875 -5.484375 7.8125 -5.890625 C 7.414062 -6.296875 6.929688 -6.5 6.359375 -6.5 L 2.75 -6.5 C 2.175781 -6.5 1.6875 -6.296875 1.28125 -5.890625 C 0.882812 -5.484375 0.6875 -5 0.6875 -4.4375 L 0.6875 -2.0625 C 0.6875 -1.488281 0.882812 -1 1.28125 -0.59375 C 1.6875 -0.195312 2.175781 0 2.75 0 Z M 6.359375 0 "/></g></g></g><g fill="#a6a6a6" fill-opacity="1"><g transform="translate(149.040985, 232.417089)"><g><path d="M 9.46875 0 L 8.21875 0 L 7.28125 -1.40625 L 2.34375 -1.40625 L 1.375 0 L 0.140625 0 L 4.53125 -6.5 L 5.078125 -6.5 Z M 6.578125 -2.4375 L 4.796875 -5.0625 L 3.03125 -2.4375 Z M 6.578125 -2.4375 "/></g></g></g><g fill="#a6a6a6" fill-opacity="1"><g transform="translate(160.520015, 232.417089)"><g><path d="M 8.65625 0 L 7.625 0 L 7.625 -1.828125 C 7.625 -1.972656 7.570312 -2.09375 7.46875 -2.1875 C 7.363281 -2.289062 7.238281 -2.34375 7.09375 -2.34375 L 1.9375 -2.34375 L 1.9375 0 L 0.90625 0 L 0.90625 -6.5 L 7.09375 -6.5 C 7.519531 -6.5 7.882812 -6.347656 8.1875 -6.046875 C 8.5 -5.742188 8.65625 -5.378906 8.65625 -4.953125 L 8.65625 -3.890625 C 8.65625 -3.492188 8.519531 -3.148438 8.25 -2.859375 C 8.519531 -2.566406 8.65625 -2.222656 8.65625 -1.828125 Z M 7.09375 -3.375 C 7.238281 -3.375 7.363281 -3.425781 7.46875 -3.53125 C 7.570312 -3.632812 7.625 -3.753906 7.625 -3.890625 L 7.625 -4.953125 C 7.625 -5.097656 7.570312 -5.21875 7.46875 -5.3125 C 7.363281 -5.414062 7.238281 -5.46875 7.09375 -5.46875 L 1.9375 -5.46875 L 1.9375 -3.375 Z M 7.09375 -3.375 "/></g></g></g><g fill="#a6a6a6" fill-opacity="1"><g transform="translate(171.71807, 232.417089)"><g/></g></g><g fill="#a6a6a6" fill-opacity="1"><g transform="translate(175.887209, 232.417089)"><g><path d="M 8.65625 0 L 7.625 0 L 7.625 -1.828125 C 7.625 -1.972656 7.570312 -2.09375 7.46875 -2.1875 C 7.363281 -2.289062 7.238281 -2.34375 7.09375 -2.34375 L 1.9375 -2.34375 L 1.9375 0 L 0.90625 0 L 0.90625 -6.5 L 7.09375 -6.5 C 7.519531 -6.5 7.882812 -6.347656 8.1875 -6.046875 C 8.5 -5.742188 8.65625 -5.378906 8.65625 -4.953125 L 8.65625 -3.890625 C 8.65625 -3.492188 8.519531 -3.148438 8.25 -2.859375 C 8.519531 -2.566406 8.65625 -2.222656 8.65625 -1.828125 Z M 7.09375 -3.375 C 7.238281 -3.375 7.363281 -3.425781 7.46875 -3.53125 C 7.570312 -3.632812 7.625 -3.753906 7.625 -3.890625 L 7.625 -4.953125 C 7.625 -5.097656 7.570312 -5.21875 7.46875 -5.3125 C 7.363281 -5.414062 7.238281 -5.46875 7.09375 -5.46875 L 1.9375 -5.46875 L 1.9375 -3.375 Z M 7.09375 -3.375 "/></g></g></g><g fill="#a6a6a6" fill-opacity="1"><g transform="translate(187.085264, 232.417089)"><g><path d="M 8.140625 0 L 0.90625 0 L 0.90625 -6.5 L 8.140625 -6.5 L 8.140625 -5.46875 L 1.9375 -5.46875 L 1.9375 -3.765625 L 7.40625 -3.765625 L 7.40625 -2.734375 L 1.9375 -2.734375 L 1.9375 -1.03125 L 8.140625 -1.03125 Z M 8.140625 0 "/></g></g></g><g fill="#a6a6a6" fill-opacity="1"><g transform="translate(197.766686, 232.417089)"><g><path d="M 8.65625 0 L 7.953125 0 L 1.9375 -4.90625 L 1.9375 0 L 0.90625 0 L 0.90625 -6.5 L 1.609375 -6.5 L 7.625 -1.609375 L 7.625 -6.5 L 8.65625 -6.5 Z M 8.65625 0 "/></g></g></g><g fill="#a6a6a6" fill-opacity="1"><g transform="translate(209.191334, 232.417089)"><g><path d="M 4.109375 0 L 3.078125 0 L 3.078125 -5.46875 L 0.140625 -5.46875 L 0.140625 -6.5 L 7.0625 -6.5 L 7.0625 -5.46875 L 4.109375 -5.46875 Z M 4.109375 0 "/></g></g></g><g fill="#a6a6a6" fill-opacity="1"><g transform="translate(218.250351, 232.417089)"><g><path d="M 9.46875 0 L 8.21875 0 L 7.28125 -1.40625 L 2.34375 -1.40625 L 1.375 0 L 0.140625 0 L 4.53125 -6.5 L 5.078125 -6.5 Z M 6.578125 -2.4375 L 4.796875 -5.0625 L 3.03125 -2.4375 Z M 6.578125 -2.4375 "/></g></g></g><g fill="#a6a6a6" fill-opacity="1"><g transform="translate(229.72938, 232.417089)"><g><path d="M 6.859375 0 L 6.859375 -1.03125 L 1.9375 -1.03125 L 1.9375 -6.5 L 0.90625 -6.5 L 0.90625 0 Z M 6.859375 0 "/></g></g></g><g clip-path="url(#13dda9269d)"><path fill="#f5f6f5" d="M 133.917969 221.410156 L 133.917969 222.464844 L 113.476562 222.464844 L 120.027344 215.914062 C 120.15625 216.023438 120.296875 216.113281 120.449219 216.1875 C 120.601562 216.257812 120.757812 216.3125 120.921875 216.34375 C 121.085938 216.375 121.253906 216.386719 121.421875 216.375 C 121.589844 216.363281 121.753906 216.332031 121.914062 216.28125 C 122.070312 216.230469 122.222656 216.15625 122.363281 216.066406 C 122.503906 215.976562 122.632812 215.867188 122.746094 215.742188 C 122.859375 215.621094 122.957031 215.484375 123.035156 215.335938 C 123.113281 215.1875 123.171875 215.03125 123.210938 214.867188 C 123.25 214.703125 123.269531 214.539062 123.265625 214.371094 C 123.261719 214.203125 123.234375 214.039062 123.191406 213.875 C 123.144531 213.714844 123.078125 213.5625 122.996094 213.417969 C 122.910156 213.273438 122.808594 213.140625 122.6875 213.023438 C 122.570312 212.902344 122.4375 212.800781 122.292969 212.714844 C 122.148438 212.632812 121.996094 212.566406 121.832031 212.519531 C 121.671875 212.472656 121.507812 212.449219 121.339844 212.445312 C 121.171875 212.441406 121.003906 212.460938 120.84375 212.5 C 120.679688 212.539062 120.523438 212.597656 120.375 212.675781 C 120.226562 212.753906 120.089844 212.851562 119.964844 212.964844 C 119.84375 213.078125 119.734375 213.207031 119.644531 213.347656 C 119.554688 213.488281 119.480469 213.636719 119.429688 213.796875 C 119.375 213.957031 119.34375 214.121094 119.335938 214.289062 C 119.324219 214.457031 119.335938 214.621094 119.367188 214.789062 C 119.398438 214.953125 119.449219 215.109375 119.523438 215.261719 C 119.597656 215.414062 119.6875 215.554688 119.792969 215.683594 L 106.761719 228.714844 L 71.769531 228.714844 L 71.769531 229.046875 L 106.898438 229.046875 L 113.148438 222.796875 L 118.472656 222.796875 L 120.921875 225.238281 L 126.242188 225.238281 L 128.6875 222.796875 L 133.921875 222.796875 L 133.921875 223.84375 L 136.363281 223.84375 L 136.363281 221.40625 Z M 136.027344 223.519531 L 134.246094 223.519531 L 134.246094 221.738281 L 136.027344 221.738281 Z M 136.027344 223.519531 " fill-opacity="1" fill-rule="nonzero"/></g><g clip-path="url(#4c98944206)"><path fill="#f5f6f5" d="M 348.195312 221.410156 L 348.195312 222.464844 L 327.753906 222.464844 L 334.304688 215.914062 C 334.433594 216.023438 334.574219 216.113281 334.722656 216.1875 C 334.875 216.257812 335.035156 216.3125 335.199219 216.34375 C 335.363281 216.375 335.53125 216.386719 335.699219 216.375 C 335.867188 216.363281 336.027344 216.332031 336.1875 216.28125 C 336.347656 216.230469 336.5 216.15625 336.640625 216.066406 C 336.78125 215.976562 336.910156 215.867188 337.023438 215.742188 C 337.136719 215.621094 337.230469 215.484375 337.3125 215.335938 C 337.390625 215.1875 337.449219 215.03125 337.488281 214.867188 C 337.527344 214.703125 337.542969 214.539062 337.539062 214.371094 C 337.535156 214.203125 337.511719 214.039062 337.464844 213.875 C 337.421875 213.714844 337.355469 213.5625 337.269531 213.417969 C 337.1875 213.273438 337.082031 213.140625 336.964844 213.023438 C 336.847656 212.902344 336.714844 212.800781 336.570312 212.714844 C 336.425781 212.632812 336.269531 212.566406 336.109375 212.519531 C 335.949219 212.472656 335.785156 212.449219 335.617188 212.445312 C 335.449219 212.441406 335.28125 212.460938 335.117188 212.5 C 334.953125 212.539062 334.800781 212.597656 334.652344 212.675781 C 334.503906 212.753906 334.367188 212.851562 334.242188 212.964844 C 334.117188 213.078125 334.011719 213.207031 333.921875 213.347656 C 333.828125 213.488281 333.757812 213.636719 333.707031 213.796875 C 333.652344 213.957031 333.621094 214.121094 333.609375 214.289062 C 333.601562 214.457031 333.609375 214.621094 333.644531 214.789062 C 333.675781 214.953125 333.726562 215.109375 333.800781 215.261719 C 333.871094 215.414062 333.960938 215.554688 334.070312 215.683594 L 321.039062 228.714844 L 286.046875 228.714844 L 286.046875 229.046875 L 321.175781 229.046875 L 327.425781 222.796875 L 332.75 222.796875 L 335.199219 225.238281 L 340.519531 225.238281 L 342.960938 222.796875 L 348.199219 222.796875 L 348.199219 223.84375 L 350.636719 223.84375 L 350.636719 221.40625 Z M 350.304688 223.519531 L 348.523438 223.519531 L 348.523438 221.738281 L 350.304688 221.738281 Z M 350.304688 223.519531 " fill-opacity="1" fill-rule="nonzero"/></g></svg>